<?xml version="1.0" encoding="us-ascii" standalone="no"?><svg xmlns="http://www.w3.org/2000/svg" xmlns:xlink="http://www.w3.org/1999/xlink" contentStyleType="text/css" height="706px" preserveAspectRatio="none" style="width:1587px;height:706px;background:#FFFFFF;" version="1.1" viewBox="0 0 1587 706" width="1587px" zoomAndPan="magnify"><defs/><g><!--class TransportMode--><g id="elem_TransportMode"><rect codeLine="3" fill="#F1F1F1" height="66.6211" id="TransportMode" rx="2.5" ry="2.5" style="stroke:#181818;stroke-width:0.5;" width="155" x="383" y="7"/><ellipse cx="409.7" cy="23" fill="#EB937F" rx="11" ry="11" style="stroke:#181818;stroke-width:1.0;"/><path d="M408.5594,23.7969 L408.5594,26.2969 L412.8875,26.2969 L412.8875,25.375 Q412.8875,24.7656 413.1219,24.5 Q413.3719,24.2344 413.7469,24.2344 Q414.1219,24.2344 414.3563,24.5 Q414.5906,24.7656 414.5906,25.375 L414.5906,28 L406.5906,28 Q405.9656,28 405.7,27.7656 Q405.45,27.5313 405.45,27.1406 Q405.45,26.7656 405.7156,26.5313 Q405.9813,26.2969 406.5906,26.2969 L406.8563,26.2969 L406.8563,19.6406 L406.5906,19.6406 Q405.9656,19.6406 405.7,19.4063 Q405.45,19.1719 405.45,18.7813 Q405.45,18.4063 405.7,18.1719 Q405.9656,17.9375 406.5906,17.9375 L414.2156,17.9375 L414.2156,20.5313 Q414.2156,21.1406 413.9813,21.4063 Q413.7625,21.6563 413.3719,21.6563 Q412.9969,21.6563 412.7625,21.4063 Q412.5281,21.1406 412.5281,20.5313 L412.5281,19.6406 L408.5594,19.6406 L408.5594,22.0938 L410.0438,22.0938 Q410.0438,21.4375 410.1688,21.25 Q410.4344,20.8438 410.9031,20.8438 Q411.2781,20.8438 411.5125,21.1094 Q411.7469,21.3594 411.7469,21.9688 L411.7469,23.9375 Q411.7469,24.4844 411.6219,24.6719 Q411.3563,25.0625 410.9031,25.0625 Q410.4344,25.0625 410.1688,24.6563 Q410.0438,24.4688 410.0438,23.7969 L408.5594,23.7969 Z " fill="#000000"/><text fill="#000000" font-family="sans-serif" font-size="14" lengthAdjust="spacing" textLength="97" x="426.3" y="28.7969">TransportMode</text><line style="stroke:#181818;stroke-width:0.5;" x1="384" x2="537" y1="39" y2="39"/><text fill="#000000" font-family="sans-serif" font-size="14" lengthAdjust="spacing" textLength="143" x="389" y="58.1074">PASSENGER, CARGO</text><line style="stroke:#181818;stroke-width:0.5;" x1="384" x2="537" y1="65.6211" y2="65.6211"/></g><!--class Transport--><g id="elem_Transport"><rect codeLine="42" fill="#F1F1F1" height="290.0742" id="Transport" rx="2.5" ry="2.5" style="stroke:#181818;stroke-width:0.5;" width="548" x="350.5" y="134"/><ellipse cx="589.25" cy="150" fill="#ADD1B2" rx="11" ry="11" style="stroke:#181818;stroke-width:1.0;"/><path d="M592.0156,145.875 Q592.1719,145.6563 592.3594,145.5469 Q592.5469,145.4375 592.7656,145.4375 Q593.1406,145.4375 593.375,145.7031 Q593.6094,145.9531 593.6094,146.5625 L593.6094,148.0156 Q593.6094,148.625 593.375,148.8906 Q593.1406,149.1563 592.7656,149.1563 Q592.4219,149.1563 592.2188,148.9531 Q592.0156,148.7656 591.9063,148.25 Q591.8594,147.8906 591.6719,147.7031 Q591.3438,147.3281 590.7344,147.1094 Q590.125,146.8906 589.5,146.8906 Q588.7344,146.8906 588.0938,147.2188 Q587.4688,147.5469 586.9688,148.2969 Q586.4844,149.0469 586.4844,150.0781 L586.4844,151.1719 Q586.4844,152.4063 587.375,153.2344 Q588.2656,154.0469 589.8594,154.0469 Q590.7969,154.0469 591.4531,153.7969 Q591.8438,153.6406 592.2656,153.2031 Q592.5313,152.9375 592.6719,152.8594 Q592.8281,152.7813 593.0313,152.7813 Q593.3594,152.7813 593.6094,153.0469 Q593.875,153.2969 593.875,153.6406 Q593.875,153.9844 593.5313,154.3906 Q593.0313,154.9688 592.2344,155.2969 Q591.1563,155.75 589.8594,155.75 Q588.3438,155.75 587.1406,155.125 Q586.1563,154.625 585.4688,153.5625 Q584.7813,152.4844 584.7813,151.2031 L584.7813,150.0469 Q584.7813,148.7188 585.3906,147.5781 Q586.0156,146.4219 587.1094,145.8125 Q588.2031,145.1875 589.4375,145.1875 Q590.1719,145.1875 590.8125,145.3594 Q591.4688,145.5156 592.0156,145.875 Z " fill="#000000"/><text fill="#000000" font-family="sans-serif" font-size="14" lengthAdjust="spacing" textLength="62" x="609.75" y="155.7969">Transport</text><line style="stroke:#181818;stroke-width:0.5;" x1="351.5" x2="897.5" y1="166" y2="166"/><rect fill="none" height="6" style="stroke:#C82930;stroke-width:1.0;" width="6" x="358.5" y="177.8105"/><text fill="#000000" font-family="sans-serif" font-size="14" lengthAdjust="spacing" textLength="85" x="370.5" y="185.1074">model : string</text><rect fill="none" height="6" style="stroke:#C82930;stroke-width:1.0;" width="6" x="358.5" y="196.4316"/><text fill="#000000" font-family="sans-serif" font-size="14" lengthAdjust="spacing" textLength="128" x="370.5" y="203.7285">max_weight : double</text><rect fill="none" height="6" style="stroke:#C82930;stroke-width:1.0;" width="6" x="358.5" y="215.0527"/><text fill="#000000" font-family="sans-serif" font-size="14" lengthAdjust="spacing" textLength="74" x="370.5" y="222.3496">type : string</text><rect fill="none" height="6" style="stroke:#C82930;stroke-width:1.0;" width="6" x="358.5" y="233.6738"/><text fill="#000000" font-family="sans-serif" font-size="14" lengthAdjust="spacing" textLength="147" x="370.5" y="240.9707">TransportMode : ENUM</text><rect fill="none" height="6" style="stroke:#C82930;stroke-width:1.0;" width="6" x="358.5" y="252.2949"/><text fill="#000000" font-family="sans-serif" font-size="14" lengthAdjust="spacing" textLength="51" x="370.5" y="259.5918">Cargo[];</text><rect fill="none" height="6" style="stroke:#C82930;stroke-width:1.0;" width="6" x="358.5" y="270.916"/><text fill="#000000" font-family="sans-serif" font-size="14" lengthAdjust="spacing" textLength="80" x="370.5" y="278.2129">Passenger[];</text><line style="stroke:#181818;stroke-width:0.5;" x1="351.5" x2="897.5" y1="285.7266" y2="285.7266"/><ellipse cx="361.5" cy="300.5371" fill="#84BE84" rx="3" ry="3" style="stroke:#038048;stroke-width:1.0;"/><text fill="#000000" font-family="sans-serif" font-size="14" lengthAdjust="spacing" textLength="522" x="370.5" y="304.834">Transport(model: string,max_weight : double, type : string, TransportMode : ENUM)</text><text fill="#000000" font-family="sans-serif" font-size="14" lengthAdjust="spacing" textLength="4" x="370.5" y="323.4551">&#160;</text><ellipse cx="361.5" cy="337.7793" fill="#84BE84" rx="3" ry="3" style="stroke:#038048;stroke-width:1.0;"/><text fill="#000000" font-family="sans-serif" font-size="14" lengthAdjust="spacing" textLength="157" x="370.5" y="342.0762">GetMaxWeight() : double</text><ellipse cx="361.5" cy="356.4004" fill="#84BE84" rx="3" ry="3" style="stroke:#038048;stroke-width:1.0;"/><text fill="#000000" font-family="sans-serif" font-size="14" lengthAdjust="spacing" textLength="112" x="370.5" y="360.6973">GetType() : string</text><text fill="#000000" font-family="sans-serif" font-size="14" lengthAdjust="spacing" textLength="4" x="370.5" y="379.3184">&#160;</text><ellipse cx="361.5" cy="393.6426" fill="#84BE84" rx="3" ry="3" style="stroke:#038048;stroke-width:1.0;"/><text fill="#000000" font-family="sans-serif" font-size="14" lengthAdjust="spacing" textLength="147" x="370.5" y="397.9395">SetMaxWeight() : string</text><ellipse cx="361.5" cy="412.2637" fill="#84BE84" rx="3" ry="3" style="stroke:#038048;stroke-width:1.0;"/><text fill="#000000" font-family="sans-serif" font-size="14" lengthAdjust="spacing" textLength="110" x="370.5" y="416.5605">SetType() : string</text></g><!--class Auto--><g id="elem_Auto"><rect codeLine="9" fill="#F1F1F1" height="141.1055" id="Auto" rx="2.5" ry="2.5" style="stroke:#181818;stroke-width:0.5;" width="150" x="1103.5" y="521.5"/><ellipse cx="1159.75" cy="537.5" fill="#ADD1B2" rx="11" ry="11" style="stroke:#181818;stroke-width:1.0;"/><path d="M1162.5156,533.375 Q1162.6719,533.1563 1162.8594,533.0469 Q1163.0469,532.9375 1163.2656,532.9375 Q1163.6406,532.9375 1163.875,533.2031 Q1164.1094,533.4531 1164.1094,534.0625 L1164.1094,535.5156 Q1164.1094,536.125 1163.875,536.3906 Q1163.6406,536.6563 1163.2656,536.6563 Q1162.9219,536.6563 1162.7188,536.4531 Q1162.5156,536.2656 1162.4063,535.75 Q1162.3594,535.3906 1162.1719,535.2031 Q1161.8438,534.8281 1161.2344,534.6094 Q1160.625,534.3906 1160,534.3906 Q1159.2344,534.3906 1158.5938,534.7188 Q1157.9688,535.0469 1157.4688,535.7969 Q1156.9844,536.5469 1156.9844,537.5781 L1156.9844,538.6719 Q1156.9844,539.9063 1157.875,540.7344 Q1158.7656,541.5469 1160.3594,541.5469 Q1161.2969,541.5469 1161.9531,541.2969 Q1162.3438,541.1406 1162.7656,540.7031 Q1163.0313,540.4375 1163.1719,540.3594 Q1163.3281,540.2813 1163.5313,540.2813 Q1163.8594,540.2813 1164.1094,540.5469 Q1164.375,540.7969 1164.375,541.1406 Q1164.375,541.4844 1164.0313,541.8906 Q1163.5313,542.4688 1162.7344,542.7969 Q1161.6563,543.25 1160.3594,543.25 Q1158.8438,543.25 1157.6406,542.625 Q1156.6563,542.125 1155.9688,541.0625 Q1155.2813,539.9844 1155.2813,538.7031 L1155.2813,537.5469 Q1155.2813,536.2188 1155.8906,535.0781 Q1156.5156,533.9219 1157.6094,533.3125 Q1158.7031,532.6875 1159.9375,532.6875 Q1160.6719,532.6875 1161.3125,532.8594 Q1161.9688,533.0156 1162.5156,533.375 Z " fill="#000000"/><text fill="#000000" font-family="sans-serif" font-size="14" lengthAdjust="spacing" textLength="29" x="1180.25" y="543.2969">Auto</text><line style="stroke:#181818;stroke-width:0.5;" x1="1104.5" x2="1252.5" y1="553.5" y2="553.5"/><line style="stroke:#181818;stroke-width:0.5;" x1="1104.5" x2="1252.5" y1="561.5" y2="561.5"/><ellipse cx="1114.5" cy="576.3105" fill="#84BE84" rx="3" ry="3" style="stroke:#038048;stroke-width:1.0;"/><text fill="#000000" font-family="sans-serif" font-size="14" lengthAdjust="spacing" textLength="124" x="1123.5" y="580.6074">Auto(model : string)</text><text fill="#000000" font-family="sans-serif" font-size="14" lengthAdjust="spacing" textLength="4" x="1123.5" y="599.2285">&#160;</text><ellipse cx="1114.5" cy="613.5527" fill="#84BE84" rx="3" ry="3" style="stroke:#038048;stroke-width:1.0;"/><text fill="#000000" font-family="sans-serif" font-size="14" lengthAdjust="spacing" textLength="118" x="1123.5" y="617.8496">GetModel() : string</text><text fill="#000000" font-family="sans-serif" font-size="14" lengthAdjust="spacing" textLength="4" x="1123.5" y="636.4707">&#160;</text><ellipse cx="1114.5" cy="650.7949" fill="#84BE84" rx="3" ry="3" style="stroke:#038048;stroke-width:1.0;"/><text fill="#000000" font-family="sans-serif" font-size="14" lengthAdjust="spacing" textLength="116" x="1123.5" y="655.0918">SetModel() : string</text></g><!--class Railway--><g id="elem_Railway"><rect codeLine="20" fill="#F1F1F1" height="141.1055" id="Railway" rx="2.5" ry="2.5" style="stroke:#181818;stroke-width:0.5;" width="169" x="7" y="521.5"/><ellipse cx="63.25" cy="537.5" fill="#ADD1B2" rx="11" ry="11" style="stroke:#181818;stroke-width:1.0;"/><path d="M66.0156,533.375 Q66.1719,533.1563 66.3594,533.0469 Q66.5469,532.9375 66.7656,532.9375 Q67.1406,532.9375 67.375,533.2031 Q67.6094,533.4531 67.6094,534.0625 L67.6094,535.5156 Q67.6094,536.125 67.375,536.3906 Q67.1406,536.6563 66.7656,536.6563 Q66.4219,536.6563 66.2188,536.4531 Q66.0156,536.2656 65.9063,535.75 Q65.8594,535.3906 65.6719,535.2031 Q65.3438,534.8281 64.7344,534.6094 Q64.125,534.3906 63.5,534.3906 Q62.7344,534.3906 62.0938,534.7188 Q61.4688,535.0469 60.9688,535.7969 Q60.4844,536.5469 60.4844,537.5781 L60.4844,538.6719 Q60.4844,539.9063 61.375,540.7344 Q62.2656,541.5469 63.8594,541.5469 Q64.7969,541.5469 65.4531,541.2969 Q65.8438,541.1406 66.2656,540.7031 Q66.5313,540.4375 66.6719,540.3594 Q66.8281,540.2813 67.0313,540.2813 Q67.3594,540.2813 67.6094,540.5469 Q67.875,540.7969 67.875,541.1406 Q67.875,541.4844 67.5313,541.8906 Q67.0313,542.4688 66.2344,542.7969 Q65.1563,543.25 63.8594,543.25 Q62.3438,543.25 61.1406,542.625 Q60.1563,542.125 59.4688,541.0625 Q58.7813,539.9844 58.7813,538.7031 L58.7813,537.5469 Q58.7813,536.2188 59.3906,535.0781 Q60.0156,533.9219 61.1094,533.3125 Q62.2031,532.6875 63.4375,532.6875 Q64.1719,532.6875 64.8125,532.8594 Q65.4688,533.0156 66.0156,533.375 Z " fill="#000000"/><text fill="#000000" font-family="sans-serif" font-size="14" lengthAdjust="spacing" textLength="48" x="83.75" y="543.2969">Railway</text><line style="stroke:#181818;stroke-width:0.5;" x1="8" x2="175" y1="553.5" y2="553.5"/><line style="stroke:#181818;stroke-width:0.5;" x1="8" x2="175" y1="561.5" y2="561.5"/><ellipse cx="18" cy="576.3105" fill="#84BE84" rx="3" ry="3" style="stroke:#038048;stroke-width:1.0;"/><text fill="#000000" font-family="sans-serif" font-size="14" lengthAdjust="spacing" textLength="143" x="27" y="580.6074">Railway(model : string)</text><text fill="#000000" font-family="sans-serif" font-size="14" lengthAdjust="spacing" textLength="4" x="27" y="599.2285">&#160;</text><ellipse cx="18" cy="613.5527" fill="#84BE84" rx="3" ry="3" style="stroke:#038048;stroke-width:1.0;"/><text fill="#000000" font-family="sans-serif" font-size="14" lengthAdjust="spacing" textLength="118" x="27" y="617.8496">GetModel() : string</text><text fill="#000000" font-family="sans-serif" font-size="14" lengthAdjust="spacing" textLength="4" x="27" y="636.4707">&#160;</text><ellipse cx="18" cy="650.7949" fill="#84BE84" rx="3" ry="3" style="stroke:#038048;stroke-width:1.0;"/><text fill="#000000" font-family="sans-serif" font-size="14" lengthAdjust="spacing" textLength="116" x="27" y="655.0918">SetModel() : string</text></g><!--class Airplane--><g id="elem_Airplane"><rect codeLine="31" fill="#F1F1F1" height="141.1055" id="Airplane" rx="2.5" ry="2.5" style="stroke:#181818;stroke-width:0.5;" width="173" x="211" y="521.5"/><ellipse cx="267.25" cy="537.5" fill="#ADD1B2" rx="11" ry="11" style="stroke:#181818;stroke-width:1.0;"/><path d="M270.0156,533.375 Q270.1719,533.1563 270.3594,533.0469 Q270.5469,532.9375 270.7656,532.9375 Q271.1406,532.9375 271.375,533.2031 Q271.6094,533.4531 271.6094,534.0625 L271.6094,535.5156 Q271.6094,536.125 271.375,536.3906 Q271.1406,536.6563 270.7656,536.6563 Q270.4219,536.6563 270.2188,536.4531 Q270.0156,536.2656 269.9063,535.75 Q269.8594,535.3906 269.6719,535.2031 Q269.3438,534.8281 268.7344,534.6094 Q268.125,534.3906 267.5,534.3906 Q266.7344,534.3906 266.0938,534.7188 Q265.4688,535.0469 264.9688,535.7969 Q264.4844,536.5469 264.4844,537.5781 L264.4844,538.6719 Q264.4844,539.9063 265.375,540.7344 Q266.2656,541.5469 267.8594,541.5469 Q268.7969,541.5469 269.4531,541.2969 Q269.8438,541.1406 270.2656,540.7031 Q270.5313,540.4375 270.6719,540.3594 Q270.8281,540.2813 271.0313,540.2813 Q271.3594,540.2813 271.6094,540.5469 Q271.875,540.7969 271.875,541.1406 Q271.875,541.4844 271.5313,541.8906 Q271.0313,542.4688 270.2344,542.7969 Q269.1563,543.25 267.8594,543.25 Q266.3438,543.25 265.1406,542.625 Q264.1563,542.125 263.4688,541.0625 Q262.7813,539.9844 262.7813,538.7031 L262.7813,537.5469 Q262.7813,536.2188 263.3906,535.0781 Q264.0156,533.9219 265.1094,533.3125 Q266.2031,532.6875 267.4375,532.6875 Q268.1719,532.6875 268.8125,532.8594 Q269.4688,533.0156 270.0156,533.375 Z " fill="#000000"/><text fill="#000000" font-family="sans-serif" font-size="14" lengthAdjust="spacing" textLength="52" x="287.75" y="543.2969">Airplane</text><line style="stroke:#181818;stroke-width:0.5;" x1="212" x2="383" y1="553.5" y2="553.5"/><line style="stroke:#181818;stroke-width:0.5;" x1="212" x2="383" y1="561.5" y2="561.5"/><ellipse cx="222" cy="576.3105" fill="#84BE84" rx="3" ry="3" style="stroke:#038048;stroke-width:1.0;"/><text fill="#000000" font-family="sans-serif" font-size="14" lengthAdjust="spacing" textLength="147" x="231" y="580.6074">Airplane(model : string)</text><text fill="#000000" font-family="sans-serif" font-size="14" lengthAdjust="spacing" textLength="4" x="231" y="599.2285">&#160;</text><ellipse cx="222" cy="613.5527" fill="#84BE84" rx="3" ry="3" style="stroke:#038048;stroke-width:1.0;"/><text fill="#000000" font-family="sans-serif" font-size="14" lengthAdjust="spacing" textLength="118" x="231" y="617.8496">GetModel() : string</text><text fill="#000000" font-family="sans-serif" font-size="14" lengthAdjust="spacing" textLength="4" x="231" y="636.4707">&#160;</text><ellipse cx="222" cy="650.7949" fill="#84BE84" rx="3" ry="3" style="stroke:#038048;stroke-width:1.0;"/><text fill="#000000" font-family="sans-serif" font-size="14" lengthAdjust="spacing" textLength="116" x="231" y="655.0918">SetModel() : string</text></g><!--class Cargo--><g id="elem_Cargo"><rect codeLine="72" fill="#F1F1F1" height="215.5898" id="Cargo" rx="2.5" ry="2.5" style="stroke:#181818;stroke-width:0.5;" width="264" x="804.5" y="484"/><ellipse cx="912.75" cy="500" fill="#ADD1B2" rx="11" ry="11" style="stroke:#181818;stroke-width:1.0;"/><path d="M915.5156,495.875 Q915.6719,495.6563 915.8594,495.5469 Q916.0469,495.4375 916.2656,495.4375 Q916.6406,495.4375 916.875,495.7031 Q917.1094,495.9531 917.1094,496.5625 L917.1094,498.0156 Q917.1094,498.625 916.875,498.8906 Q916.6406,499.1563 916.2656,499.1563 Q915.9219,499.1563 915.7188,498.9531 Q915.5156,498.7656 915.4063,498.25 Q915.3594,497.8906 915.1719,497.7031 Q914.8438,497.3281 914.2344,497.1094 Q913.625,496.8906 913,496.8906 Q912.2344,496.8906 911.5938,497.2188 Q910.9688,497.5469 910.4688,498.2969 Q909.9844,499.0469 909.9844,500.0781 L909.9844,501.1719 Q909.9844,502.4063 910.875,503.2344 Q911.7656,504.0469 913.3594,504.0469 Q914.2969,504.0469 914.9531,503.7969 Q915.3438,503.6406 915.7656,503.2031 Q916.0313,502.9375 916.1719,502.8594 Q916.3281,502.7813 916.5313,502.7813 Q916.8594,502.7813 917.1094,503.0469 Q917.375,503.2969 917.375,503.6406 Q917.375,503.9844 917.0313,504.3906 Q916.5313,504.9688 915.7344,505.2969 Q914.6563,505.75 913.3594,505.75 Q911.8438,505.75 910.6406,505.125 Q909.6563,504.625 908.9688,503.5625 Q908.2813,502.4844 908.2813,501.2031 L908.2813,500.0469 Q908.2813,498.7188 908.8906,497.5781 Q909.5156,496.4219 910.6094,495.8125 Q911.7031,495.1875 912.9375,495.1875 Q913.6719,495.1875 914.3125,495.3594 Q914.9688,495.5156 915.5156,495.875 Z " fill="#000000"/><text fill="#000000" font-family="sans-serif" font-size="14" lengthAdjust="spacing" textLength="39" x="933.25" y="505.7969">Cargo</text><line style="stroke:#181818;stroke-width:0.5;" x1="805.5" x2="1067.5" y1="516" y2="516"/><rect fill="none" height="6" style="stroke:#C82930;stroke-width:1.0;" width="6" x="812.5" y="527.8105"/><text fill="#000000" font-family="sans-serif" font-size="14" lengthAdjust="spacing" textLength="82" x="824.5" y="535.1074">name : string</text><rect fill="none" height="6" style="stroke:#C82930;stroke-width:1.0;" width="6" x="812.5" y="546.4316"/><text fill="#000000" font-family="sans-serif" font-size="14" lengthAdjust="spacing" textLength="95" x="824.5" y="553.7285">weight : double</text><line style="stroke:#181818;stroke-width:0.5;" x1="805.5" x2="1067.5" y1="561.2422" y2="561.2422"/><ellipse cx="815.5" cy="576.0527" fill="#84BE84" rx="3" ry="3" style="stroke:#038048;stroke-width:1.0;"/><text fill="#000000" font-family="sans-serif" font-size="14" lengthAdjust="spacing" textLength="238" x="824.5" y="580.3496">Cargo(name : string, weight : double )</text><text fill="#000000" font-family="sans-serif" font-size="14" lengthAdjust="spacing" textLength="4" x="824.5" y="598.9707">&#160;</text><ellipse cx="815.5" cy="613.2949" fill="#84BE84" rx="3" ry="3" style="stroke:#038048;stroke-width:1.0;"/><text fill="#000000" font-family="sans-serif" font-size="14" lengthAdjust="spacing" textLength="116" x="824.5" y="617.5918">GetName() : string</text><ellipse cx="815.5" cy="631.916" fill="#84BE84" rx="3" ry="3" style="stroke:#038048;stroke-width:1.0;"/><text fill="#000000" font-family="sans-serif" font-size="14" lengthAdjust="spacing" textLength="132" x="824.5" y="636.2129">GetWeight() : double</text><text fill="#000000" font-family="sans-serif" font-size="14" lengthAdjust="spacing" textLength="4" x="824.5" y="654.834">&#160;</text><ellipse cx="815.5" cy="669.1582" fill="#84BE84" rx="3" ry="3" style="stroke:#038048;stroke-width:1.0;"/><text fill="#000000" font-family="sans-serif" font-size="14" lengthAdjust="spacing" textLength="114" x="824.5" y="673.4551">SetName() : string</text><ellipse cx="815.5" cy="687.7793" fill="#84BE84" rx="3" ry="3" style="stroke:#038048;stroke-width:1.0;"/><text fill="#000000" font-family="sans-serif" font-size="14" lengthAdjust="spacing" textLength="122" x="824.5" y="692.0762">SetWeight() : string</text></g><!--class Passenger--><g id="elem_Passenger"><rect codeLine="85" fill="#F1F1F1" height="215.5898" id="Passenger" rx="2.5" ry="2.5" style="stroke:#181818;stroke-width:0.5;" width="350" x="419.5" y="484"/><ellipse cx="556.25" cy="500" fill="#ADD1B2" rx="11" ry="11" style="stroke:#181818;stroke-width:1.0;"/><path d="M559.0156,495.875 Q559.1719,495.6563 559.3594,495.5469 Q559.5469,495.4375 559.7656,495.4375 Q560.1406,495.4375 560.375,495.7031 Q560.6094,495.9531 560.6094,496.5625 L560.6094,498.0156 Q560.6094,498.625 560.375,498.8906 Q560.1406,499.1563 559.7656,499.1563 Q559.4219,499.1563 559.2188,498.9531 Q559.0156,498.7656 558.9063,498.25 Q558.8594,497.8906 558.6719,497.7031 Q558.3438,497.3281 557.7344,497.1094 Q557.125,496.8906 556.5,496.8906 Q555.7344,496.8906 555.0938,497.2188 Q554.4688,497.5469 553.9688,498.2969 Q553.4844,499.0469 553.4844,500.0781 L553.4844,501.1719 Q553.4844,502.4063 554.375,503.2344 Q555.2656,504.0469 556.8594,504.0469 Q557.7969,504.0469 558.4531,503.7969 Q558.8438,503.6406 559.2656,503.2031 Q559.5313,502.9375 559.6719,502.8594 Q559.8281,502.7813 560.0313,502.7813 Q560.3594,502.7813 560.6094,503.0469 Q560.875,503.2969 560.875,503.6406 Q560.875,503.9844 560.5313,504.3906 Q560.0313,504.9688 559.2344,505.2969 Q558.1563,505.75 556.8594,505.75 Q555.3438,505.75 554.1406,505.125 Q553.1563,504.625 552.4688,503.5625 Q551.7813,502.4844 551.7813,501.2031 L551.7813,500.0469 Q551.7813,498.7188 552.3906,497.5781 Q553.0156,496.4219 554.1094,495.8125 Q555.2031,495.1875 556.4375,495.1875 Q557.1719,495.1875 557.8125,495.3594 Q558.4688,495.5156 559.0156,495.875 Z " fill="#000000"/><text fill="#000000" font-family="sans-serif" font-size="14" lengthAdjust="spacing" textLength="68" x="576.75" y="505.7969">Passenger</text><line style="stroke:#181818;stroke-width:0.5;" x1="420.5" x2="768.5" y1="516" y2="516"/><rect fill="none" height="6" style="stroke:#C82930;stroke-width:1.0;" width="6" x="427.5" y="527.8105"/><text fill="#000000" font-family="sans-serif" font-size="14" lengthAdjust="spacing" textLength="82" x="439.5" y="535.1074">name : string</text><rect fill="none" height="6" style="stroke:#C82930;stroke-width:1.0;" width="6" x="427.5" y="546.4316"/><text fill="#000000" font-family="sans-serif" font-size="14" lengthAdjust="spacing" textLength="156" x="439.5" y="553.7285">amount_passengers : int</text><line style="stroke:#181818;stroke-width:0.5;" x1="420.5" x2="768.5" y1="561.2422" y2="561.2422"/><ellipse cx="430.5" cy="576.0527" fill="#84BE84" rx="3" ry="3" style="stroke:#038048;stroke-width:1.0;"/><text fill="#000000" font-family="sans-serif" font-size="14" lengthAdjust="spacing" textLength="324" x="439.5" y="580.3496">Passenger(name : string, amount_passengers : int)</text><text fill="#000000" font-family="sans-serif" font-size="14" lengthAdjust="spacing" textLength="4" x="439.5" y="598.9707">&#160;</text><ellipse cx="430.5" cy="613.2949" fill="#84BE84" rx="3" ry="3" style="stroke:#038048;stroke-width:1.0;"/><text fill="#000000" font-family="sans-serif" font-size="14" lengthAdjust="spacing" textLength="116" x="439.5" y="617.5918">GetName() : string</text><ellipse cx="430.5" cy="631.916" fill="#84BE84" rx="3" ry="3" style="stroke:#038048;stroke-width:1.0;"/><text fill="#000000" font-family="sans-serif" font-size="14" lengthAdjust="spacing" textLength="183" x="439.5" y="636.2129">GetAmountPassengers() : int</text><text fill="#000000" font-family="sans-serif" font-size="14" lengthAdjust="spacing" textLength="4" x="439.5" y="654.834">&#160;</text><ellipse cx="430.5" cy="669.1582" fill="#84BE84" rx="3" ry="3" style="stroke:#038048;stroke-width:1.0;"/><text fill="#000000" font-family="sans-serif" font-size="14" lengthAdjust="spacing" textLength="114" x="439.5" y="673.4551">SetName() : string</text><ellipse cx="430.5" cy="687.7793" fill="#84BE84" rx="3" ry="3" style="stroke:#038048;stroke-width:1.0;"/><text fill="#000000" font-family="sans-serif" font-size="14" lengthAdjust="spacing" textLength="181" x="439.5" y="692.0762">SetAmountPassengers() : int</text></g><!--class Order--><g id="elem_Order"><rect codeLine="59" fill="#F1F1F1" height="215.5898" id="Order" rx="2.5" ry="2.5" style="stroke:#181818;stroke-width:0.5;" width="275" x="1297" y="171"/><ellipse cx="1411.75" cy="187" fill="#ADD1B2" rx="11" ry="11" style="stroke:#181818;stroke-width:1.0;"/><path d="M1414.5156,182.875 Q1414.6719,182.6563 1414.8594,182.5469 Q1415.0469,182.4375 1415.2656,182.4375 Q1415.6406,182.4375 1415.875,182.7031 Q1416.1094,182.9531 1416.1094,183.5625 L1416.1094,185.0156 Q1416.1094,185.625 1415.875,185.8906 Q1415.6406,186.1563 1415.2656,186.1563 Q1414.9219,186.1563 1414.7188,185.9531 Q1414.5156,185.7656 1414.4063,185.25 Q1414.3594,184.8906 1414.1719,184.7031 Q1413.8438,184.3281 1413.2344,184.1094 Q1412.625,183.8906 1412,183.8906 Q1411.2344,183.8906 1410.5938,184.2188 Q1409.9688,184.5469 1409.4688,185.2969 Q1408.9844,186.0469 1408.9844,187.0781 L1408.9844,188.1719 Q1408.9844,189.4063 1409.875,190.2344 Q1410.7656,191.0469 1412.3594,191.0469 Q1413.2969,191.0469 1413.9531,190.7969 Q1414.3438,190.6406 1414.7656,190.2031 Q1415.0313,189.9375 1415.1719,189.8594 Q1415.3281,189.7813 1415.5313,189.7813 Q1415.8594,189.7813 1416.1094,190.0469 Q1416.375,190.2969 1416.375,190.6406 Q1416.375,190.9844 1416.0313,191.3906 Q1415.5313,191.9688 1414.7344,192.2969 Q1413.6563,192.75 1412.3594,192.75 Q1410.8438,192.75 1409.6406,192.125 Q1408.6563,191.625 1407.9688,190.5625 Q1407.2813,189.4844 1407.2813,188.2031 L1407.2813,187.0469 Q1407.2813,185.7188 1407.8906,184.5781 Q1408.5156,183.4219 1409.6094,182.8125 Q1410.7031,182.1875 1411.9375,182.1875 Q1412.6719,182.1875 1413.3125,182.3594 Q1413.9688,182.5156 1414.5156,182.875 Z " fill="#000000"/><text fill="#000000" font-family="sans-serif" font-size="14" lengthAdjust="spacing" textLength="37" x="1432.25" y="192.7969">Order</text><line style="stroke:#181818;stroke-width:0.5;" x1="1298" x2="1571" y1="203" y2="203"/><rect fill="none" height="6" style="stroke:#C82930;stroke-width:1.0;" width="6" x="1305" y="214.8105"/><text fill="#000000" font-family="sans-serif" font-size="14" lengthAdjust="spacing" textLength="108" x="1317" y="222.1074">distance : double</text><rect fill="none" height="6" style="stroke:#C82930;stroke-width:1.0;" width="6" x="1305" y="233.4316"/><text fill="#000000" font-family="sans-serif" font-size="14" lengthAdjust="spacing" textLength="86" x="1317" y="240.7285">price : double</text><line style="stroke:#181818;stroke-width:0.5;" x1="1298" x2="1571" y1="248.2422" y2="248.2422"/><ellipse cx="1308" cy="263.0527" fill="#84BE84" rx="3" ry="3" style="stroke:#038048;stroke-width:1.0;"/><text fill="#000000" font-family="sans-serif" font-size="14" lengthAdjust="spacing" textLength="249" x="1317" y="267.3496">Order(distance : double, price : double)</text><text fill="#000000" font-family="sans-serif" font-size="14" lengthAdjust="spacing" textLength="4" x="1317" y="285.9707">&#160;</text><ellipse cx="1308" cy="300.2949" fill="#84BE84" rx="3" ry="3" style="stroke:#038048;stroke-width:1.0;"/><text fill="#000000" font-family="sans-serif" font-size="14" lengthAdjust="spacing" textLength="143" x="1317" y="304.5918">GetDistance() : double</text><ellipse cx="1308" cy="318.916" fill="#84BE84" rx="3" ry="3" style="stroke:#038048;stroke-width:1.0;"/><text fill="#000000" font-family="sans-serif" font-size="14" lengthAdjust="spacing" textLength="120" x="1317" y="323.2129">GetPrice() : double</text><text fill="#000000" font-family="sans-serif" font-size="14" lengthAdjust="spacing" textLength="4" x="1317" y="341.834">&#160;</text><ellipse cx="1308" cy="356.1582" fill="#84BE84" rx="3" ry="3" style="stroke:#038048;stroke-width:1.0;"/><text fill="#000000" font-family="sans-serif" font-size="14" lengthAdjust="spacing" textLength="141" x="1317" y="360.4551">SetDistance() : double</text><ellipse cx="1308" cy="374.7793" fill="#84BE84" rx="3" ry="3" style="stroke:#038048;stroke-width:1.0;"/><text fill="#000000" font-family="sans-serif" font-size="14" lengthAdjust="spacing" textLength="118" x="1317" y="379.0762">SetPrice() : double</text></g><!--class Company--><g id="elem_Company"><rect codeLine="100" fill="#F1F1F1" height="141.1055" id="Company" rx="2.5" ry="2.5" style="stroke:#181818;stroke-width:0.5;" width="292" x="1288.5" y="521.5"/><ellipse cx="1400.25" cy="537.5" fill="#ADD1B2" rx="11" ry="11" style="stroke:#181818;stroke-width:1.0;"/><path d="M1403.0156,533.375 Q1403.1719,533.1563 1403.3594,533.0469 Q1403.5469,532.9375 1403.7656,532.9375 Q1404.1406,532.9375 1404.375,533.2031 Q1404.6094,533.4531 1404.6094,534.0625 L1404.6094,535.5156 Q1404.6094,536.125 1404.375,536.3906 Q1404.1406,536.6563 1403.7656,536.6563 Q1403.4219,536.6563 1403.2188,536.4531 Q1403.0156,536.2656 1402.9063,535.75 Q1402.8594,535.3906 1402.6719,535.2031 Q1402.3438,534.8281 1401.7344,534.6094 Q1401.125,534.3906 1400.5,534.3906 Q1399.7344,534.3906 1399.0938,534.7188 Q1398.4688,535.0469 1397.9688,535.7969 Q1397.4844,536.5469 1397.4844,537.5781 L1397.4844,538.6719 Q1397.4844,539.9063 1398.375,540.7344 Q1399.2656,541.5469 1400.8594,541.5469 Q1401.7969,541.5469 1402.4531,541.2969 Q1402.8438,541.1406 1403.2656,540.7031 Q1403.5313,540.4375 1403.6719,540.3594 Q1403.8281,540.2813 1404.0313,540.2813 Q1404.3594,540.2813 1404.6094,540.5469 Q1404.875,540.7969 1404.875,541.1406 Q1404.875,541.4844 1404.5313,541.8906 Q1404.0313,542.4688 1403.2344,542.7969 Q1402.1563,543.25 1400.8594,543.25 Q1399.3438,543.25 1398.1406,542.625 Q1397.1563,542.125 1396.4688,541.0625 Q1395.7813,539.9844 1395.7813,538.7031 L1395.7813,537.5469 Q1395.7813,536.2188 1396.3906,535.0781 Q1397.0156,533.9219 1398.1094,533.3125 Q1399.2031,532.6875 1400.4375,532.6875 Q1401.1719,532.6875 1401.8125,532.8594 Q1402.4688,533.0156 1403.0156,533.375 Z " fill="#000000"/><text fill="#000000" font-family="sans-serif" font-size="14" lengthAdjust="spacing" textLength="60" x="1420.75" y="543.2969">Company</text><line style="stroke:#181818;stroke-width:0.5;" x1="1289.5" x2="1579.5" y1="553.5" y2="553.5"/><rect fill="none" height="6" style="stroke:#C82930;stroke-width:1.0;" width="6" x="1296.5" y="565.3105"/><text fill="#000000" font-family="sans-serif" font-size="14" lengthAdjust="spacing" textLength="74" x="1308.5" y="572.6074">Transport[];</text><rect fill="none" height="6" style="stroke:#C82930;stroke-width:1.0;" width="6" x="1296.5" y="583.9316"/><text fill="#000000" font-family="sans-serif" font-size="14" lengthAdjust="spacing" textLength="49" x="1308.5" y="591.2285">Order[];</text><line style="stroke:#181818;stroke-width:0.5;" x1="1289.5" x2="1579.5" y1="598.7422" y2="598.7422"/><ellipse cx="1299.5" cy="613.5527" fill="#84BE84" rx="3" ry="3" style="stroke:#038048;stroke-width:1.0;"/><text fill="#000000" font-family="sans-serif" font-size="14" lengthAdjust="spacing" textLength="266" x="1308.5" y="617.8496">AddTransport(transport : Transport) : void</text><ellipse cx="1299.5" cy="632.1738" fill="#84BE84" rx="3" ry="3" style="stroke:#038048;stroke-width:1.0;"/><text fill="#000000" font-family="sans-serif" font-size="14" lengthAdjust="spacing" textLength="211" x="1308.5" y="636.4707">CreateOrder(order : Order) : void</text><ellipse cx="1299.5" cy="650.7949" fill="#84BE84" rx="3" ry="3" style="stroke:#038048;stroke-width:1.0;"/><text fill="#000000" font-family="sans-serif" font-size="14" lengthAdjust="spacing" textLength="199" x="1308.5" y="655.0918">AddCargo(cargo : Cargo) : void</text></g><!--link TransportMode to Transport--><g id="link_TransportMode_Transport"><path codeLine="2" d="M490.87,85.29 C498.69,96.57 507.57,109.38 516.94,122.89 " fill="none" id="TransportMode-Transport" style="stroke:#181818;stroke-width:1.0;"/><polygon fill="#181818" points="483.3,74.38,485.1442,84.0547,486.1503,78.488,491.717,79.4941,483.3,74.38" style="stroke:#181818;stroke-width:1.0;"/><line style="stroke:#181818;stroke-width:1.0;" x1="486.1503" x2="490.71" y1="78.488" y2="85.065"/><polygon fill="none" points="524.56,133.87,524.4325,126.66,517.7281,124.0046,517.8556,131.2146,524.56,133.87" style="stroke:#181818;stroke-width:1.0;"/></g><!--reverse link TransportMode to Auto--><g id="link_TransportMode_Auto"><path codeLine="7" d="M543.37,50.07 C658.1,63.3 857.85,91.67 916.5,134 C1050.72,230.88 1126.12,419.22 1158.77,521.25 " fill="none" id="TransportMode-backto-Auto" style="stroke:#181818;stroke-width:1.0;"/><polygon fill="#181818" points="538.31,49.49,546.7944,54.4916,543.2773,50.061,547.7079,46.5439,538.31,49.49" style="stroke:#181818;stroke-width:1.0;"/></g><!--reverse link Transport to Auto--><g id="link_Transport_Auto"><path codeLine="8" d="M916.81,385.42 C975.7,413.04 1035.21,445.95 1086.5,484 C1100.86,494.65 1114.52,507.93 1126.7,521.47 " fill="none" id="Transport-backto-Auto" style="stroke:#181818;stroke-width:1.0;"/><polygon fill="none" points="913.8,391.74,898.56,377.02,919.65,379.02,913.8,391.74" style="stroke:#181818;stroke-width:1.0;"/></g><!--reverse link TransportMode to Railway--><g id="link_TransportMode_Railway"><path codeLine="18" d="M377.89,65.96 C340.63,80.56 298.56,102.53 269.5,134 C166.39,245.66 120.53,423.79 102.21,521.41 " fill="none" id="TransportMode-backto-Railway" style="stroke:#181818;stroke-width:1.0;"/><polygon fill="#181818" points="382.88,64.04,373.045,63.5173,378.2096,65.8253,375.9015,70.9899,382.88,64.04" style="stroke:#181818;stroke-width:1.0;"/></g><!--reverse link Transport to Railway--><g id="link_Transport_Railway"><path codeLine="19" d="M332.27,400.3 C284.16,425.11 236.14,453.19 193.5,484 C178.52,494.82 163.9,508.02 150.62,521.4 " fill="none" id="Transport-backto-Railway" style="stroke:#181818;stroke-width:1.0;"/><polygon fill="none" points="329.34,393.94,350.34,391.13,335.67,406.42,329.34,393.94" style="stroke:#181818;stroke-width:1.0;"/></g><!--reverse link TransportMode to Airplane--><g id="link_TransportMode_Airplane"><path codeLine="29" d="M389.4,76.94 C367.46,91.52 345.63,110.57 332.5,134 C263.95,256.35 273.2,426.85 285.61,521.2 " fill="none" id="TransportMode-backto-Airplane" style="stroke:#181818;stroke-width:1.0;"/><polygon fill="#181818" points="393.79,74.08,384.0637,75.6288,389.5971,76.8039,388.422,82.3374,393.79,74.08" style="stroke:#181818;stroke-width:1.0;"/></g><!--reverse link Transport to Airplane--><g id="link_Transport_Airplane"><path codeLine="30" d="M449.93,437.87 C433.44,453.33 417.08,468.89 401.5,484 C389.23,495.91 376.37,508.78 364.05,521.34 " fill="none" id="Transport-backto-Airplane" style="stroke:#181818;stroke-width:1.0;"/><polygon fill="none" points="445.37,432.56,464.77,424.02,454.93,442.79,445.37,432.56" style="stroke:#181818;stroke-width:1.0;"/></g><!--link Transport to Cargo--><g id="link_Transport_Cargo"><path codeLine="40" d="M778.51,433.52 C792.31,447.27 806.13,461.05 819.54,474.42 " fill="none" id="Transport-Cargo" style="stroke:#181818;stroke-width:1.0;"/><polygon fill="#181818" points="769.08,424.12,772.6298,433.3069,772.621,427.65,778.2779,427.6412,769.08,424.12" style="stroke:#181818;stroke-width:1.0;"/><line style="stroke:#181818;stroke-width:1.0;" x1="772.621" x2="778.29" y1="427.65" y2="433.3"/><polygon fill="#181818" points="828.76,483.6,827.3293,476.5322,820.255,475.1345,821.6857,482.2023,828.76,483.6" style="stroke:#181818;stroke-width:1.0;"/></g><!--link Transport to Passenger--><g id="link_Transport_Passenger"><path codeLine="41" d="M609.33,437.28 C608.25,448.43 607.18,459.56 606.13,470.45 " fill="none" id="Transport-Passenger" style="stroke:#181818;stroke-width:1.0;"/><polygon fill="#181818" points="610.6,424.12,605.7487,432.6911,610.1166,429.0966,613.7112,433.4645,610.6,424.12" style="stroke:#181818;stroke-width:1.0;"/><line style="stroke:#181818;stroke-width:1.0;" x1="610.1166" x2="609.35" y1="429.0966" y2="437.06"/><polygon fill="#181818" points="604.86,483.6,609.4152,478.0098,606.007,471.6549,601.4518,477.2451,604.86,483.6" style="stroke:#181818;stroke-width:1.0;"/></g><!--link Transport to Company--><g id="link_Transport_Company"><path codeLine="98" d="M911.62,352.08 C1026.27,385.57 1157.79,430.03 1271.5,484 C1289.99,492.77 1308.83,503.37 1326.84,514.44 " fill="none" id="Transport-Company" style="stroke:#181818;stroke-width:1.0;"/><polygon fill="#181818" points="898.8,348.36,906.3261,354.7127,903.6014,349.7554,908.5587,347.0306,898.8,348.36" style="stroke:#181818;stroke-width:1.0;"/><line style="stroke:#181818;stroke-width:1.0;" x1="903.6014" x2="911.28" y1="349.7554" y2="351.98"/><polygon fill="#181818" points="1337.93,521.38,1334.9689,514.8049,1327.7607,515.0093,1330.7218,521.5844,1337.93,521.38" style="stroke:#181818;stroke-width:1.0;"/></g><!--link Order to Company--><g id="link_Order_Company"><path codeLine="99" d="M1434.5,400.2 C1434.5,436.24 1434.5,474.95 1434.5,508.02 " fill="none" id="Order-Company" style="stroke:#181818;stroke-width:1.0;"/><polygon fill="#181818" points="1434.5,387.03,1430.5,396.03,1434.5,392.03,1438.5,396.03,1434.5,387.03" style="stroke:#181818;stroke-width:1.0;"/><line style="stroke:#181818;stroke-width:1.0;" x1="1434.5" x2="1434.5" y1="392.03" y2="400.03"/><polygon fill="#181818" points="1434.5,521.35,1438.5,515.35,1434.5,509.35,1430.5,515.35,1434.5,521.35" style="stroke:#181818;stroke-width:1.0;"/></g><!--SRC=[jLFBRiCW4Bpp5HpJnla1DnShZNBAGt6g7gggeZ5ABTbWOT8aIlllXGKJGqXFxOqTPdTdPs4Z26iRBkIS5nIFHoEEDns4ADlNbn0OPxJAydowc4tN2PvawzaIVIEq2QlWR2_v1SRZhmxRLgHjuNX6Q0Y7GQsoAfpYLegIxUuqFgDGgnhSELp3UGIEzb-JiZgGKoYXWuqA6u4GU_uFBLafceemUkL7XrjFR6XyiS4Vwj5Qxl64Y1qFmPNgJzcE2Yl5NP_H2FiAD42ERmTQxZwaGWk-Vw-eGkMfeNsMxqEAfukdkOAX_ylhWpgwhZfK0xWCCtHNAudqI_nsIRIRCuiSdo4TdB62uMQZYaHSzFZs2cv2lhBN6BOK1HNQhA9i9M5RsdUc4MKVKAM0FhZY9W6r6-3H4g_qhpIzZngPSNuUuRi1O2rOJy18xUqntBIg1EI1Hqn27kx4BnJDDrA1r_j0mpp2pJrgwBfxG57XfEPx9j-QZjIgov99BSibXaFSoFbrbWnoNCaM2ARHZP5kPaI-AwyRmau8NemFsSMP21nmkUP_GOxzMrbHNBwNT3tIIuxMyCdBGkzNK2AfUQGS6gUcM8-Z2ffdi8MNavf7uGZVw0S0]--></g></svg>